# xmcd
#
# Track frame offsets:
#	150
#	11062
#	27247
#	34040
#	43137
#	60225
#	72352
#	83845
#	90785
#	111890
#	126675
#	146822
#	158580
#
# Disc length: 2304 seconds
#
# Revision: 0
# Processed by: cddbd v1.4PL0 Copyright (c) Steve Scherf et al.
# Submitted via: dBpowerAMP V4.0
#
DISCID=a808fe0d
DTITLE=The Crooked Jades - Going to The Races
DYEAR=1998
DGENRE=Bluegrass
TTITLE0=Visits
TTITLE1=Those Six Years
TTITLE2=Train on The Island
TTITLE3=Black Eyed Susie
TTITLE4=44 Gun
TTITLE5=Lugs And Bugs
TTITLE6=Sail Away Ladies
TTITLE7=Texas
TTITLE8=Medicine Springs
TTITLE9=Little Dortie
TTITLE10=Going to The Races
TTITLE11=Texas
TTITLE12=Going up Home to Live in Green Pastures
EXTD=
EXTT0=
EXTT1=
EXTT2=
EXTT3=
EXTT4=
EXTT5=
EXTT6=
EXTT7=
EXTT8=
EXTT9=
EXTT10=
EXTT11=
EXTT12=
PLAYORDER=
